PathFileType	4	(X/Y/Z)	C:/Users/Rosti/Documents/GitHub/TechForParalysis/Code/Model/04122019 - Marker Volunteer01/Rosti Data/New Session 103.trc	
DataRate	CameraRate	NumFrames	NumMarkers	Units	OrigDataRate	OrigDataStartFrame	OrigNumFrames	
100.00	100.00	9	14	mm	100.00	466	620	
Frame#	Time	C7			PX			T8			IJ			SC			AC			AI			TS			AA			GH			LE			ME			US			RS			
		X1	Y1	Z1	X2	Y2	Z2	X3	Y3	Z3	X4	Y4	Z4	X5	Y5	Z5	X6	Y6	Z6	X7	Y7	Z7	X8	Y8	Z8	X9	Y9	Z9	X10	Y10	Z10	X11	Y11	Z11	X12	Y12	Z12	X13	Y13	Z13	X14	Y14	Z14	

466	4.650	692.28912	20.27434	1534.96667	461.12833	-17.82614	1291.02014	760.77808	13.97594	1320.69507	528.72205	-12.38258	1433.73950	532.68463	12.78532	1441.26831	590.17383	163.20120	1471.67932	724.52826	101.55559	1455.55615	758.36743	97.23644	1337.65869	657.45184	215.74002	1426.85217	615.68896	225.33128	1438.34656	536.78894	252.15167	1148.66162	512.55151	163.48311	1130.62622	429.36697	271.60461	889.21301	405.44684	334.95337	925.38763 
467	4.660	692.29468	20.24603	1534.97668	461.04724	-17.74998	1291.07068	760.79590	13.95388	1320.69116	528.68732	-12.33892	1433.74536	532.64679	12.82290	1441.29456	590.31042	163.24763	1471.70776	724.65900	101.44740	1455.52600	758.43353	97.15338	1337.60034	657.61414	215.71552	1426.85046	615.88702	225.36345	1438.37573	536.82330	252.14029	1148.72388	512.54443	163.56000	1130.68958	429.25372	271.70151	889.29791	405.48935	335.12534	925.46588 
468	4.670	692.31720	20.20695	1534.99097	460.96844	-17.68187	1291.12073	760.81805	13.92624	1320.68628	528.65723	-12.29161	1433.75488	532.62042	12.87616	1441.32458	590.46753	163.29208	1471.74561	724.79626	101.34090	1455.48987	758.50409	97.06733	1337.53015	657.79602	215.68155	1426.83948	616.09637	225.38972	1438.39978	536.82275	252.12859	1148.80713	512.54272	163.66922	1130.75366	429.01361	271.74051	889.41296	405.46652	335.34381	925.58435 
469	4.680	692.35187	20.16189	1535.00256	460.89542	-17.62061	1291.16797	760.84167	13.89462	1320.68018	528.63208	-12.24135	1433.77014	532.60651	12.94574	1441.35364	590.64069	163.32956	1471.78674	724.92859	101.25150	1455.44409	758.57666	96.97810	1337.45532	657.99542	215.64413	1426.82556	616.31732	225.41739	1438.42456	536.80457	252.17574	1148.90051	512.50714	163.79218	1130.82385	428.71231	271.77667	889.55096	405.38397	335.60388	925.74249 
470	4.690	692.39307	20.11538	1535.00854	460.83005	-17.56507	1291.21228	760.86401	13.86086	1320.67297	528.61206	-12.18972	1433.79211	532.60193	13.02438	1441.38293	590.81799	163.36003	1471.82678	725.04999	101.17716	1455.39026	758.64911	96.88658	1337.38354	658.20178	215.60878	1426.81689	616.55383	225.45151	1438.45984	536.78247	252.31400	1148.99573	512.38214	163.90807	1130.91187	428.44116	271.91827	889.70752	405.24948	335.89960	925.94080 
471	4.700	692.43549	20.06962	1535.00989	460.77167	-17.51572	1291.25537	760.88300	13.82693	1320.66431	528.59729	-12.13908	1433.82080	532.60626	13.09529	1441.41772	590.98590	163.38635	1471.86621	725.16064	101.10767	1455.33594	758.72083	96.79575	1337.32031	658.40076	215.57483	1426.81726	616.80597	225.49371	1438.51050	536.74878	252.48621	1149.09424	512.11951	164.00938	1131.03210	428.20251	272.20090	889.88593	405.07416	336.22473	926.17780 
472	4.710	692.47607	20.02423	1535.00818	460.71899	-17.47429	1291.29944	760.89746	13.79488	1320.65442	528.58783	-12.09254	1433.85498	532.62311	13.13807	1441.45801	591.13708	163.40826	1471.90833	725.26514	101.03651	1455.29041	758.79175	96.71148	1337.26843	658.58398	215.54239	1426.83069	617.06335	225.54085	1438.57446	536.68439	252.62595	1149.20313	511.71097	164.11386	1131.19580	427.91571	272.57059	890.09253	404.86996	336.57181	926.44800 
473	4.720	692.51483	19.97770	1535.00488	460.67215	-17.44265	1291.34521	760.90735	13.76658	1320.64331	528.58344	-12.05325	1433.89282	532.65424	13.14522	1441.49414	591.27197	163.42308	1471.95483	725.36658	100.96428	1455.25903	758.86121	96.64147	1337.22815	658.75385	215.52129	1426.86548	617.30273	225.58064	1438.64551	536.58929	252.75136	1149.33472	511.19995	164.25244	1131.40186	427.53073	272.95239	890.32697	404.64374	336.93454	926.74329 
474	4.730	692.55389	19.92858	1535.00134	460.63184	-17.42039	1291.39063	760.91327	13.74360	1320.63098	528.58356	-12.02372	1433.93213	532.69232	13.12776	1441.51819	591.39398	163.42833	1472.00549	725.46387	100.89736	1455.24060	758.92737	96.59213	1337.19800	658.91504	215.52103	1426.92725	617.50293	225.59714	1438.71582	536.48389	252.92827	1149.49792	510.67090	164.44179	1131.63098	427.09848	273.31116	890.59387	404.39682	337.30786	927.05511 
